<svg xmlns="http://www.w3.org/2000/svg" width="650" height="450"><path fill="#00112b" d="M10.105 7.46h632.95v445.15H10.105V7.46z"/><path fill="url(#q)" d="M11.141 610.19h627.52v448.23H11.141V610.19z" transform="translate(0 -602.36)"/><path fill="#fff" stroke="#fff" stroke-linecap="round" stroke-linejoin="round" stroke-width=".043" d="m280.49 151.05 45.122-54.837-28.793-.882 30.761-1.67-22.56-60.554 25.754 60.981 49.996-49.252-48.769 52.232 48.591 1.924-50.559.629 15.787 26.689-18.982-27.117-46.349 51.857z"/><path fill="#fff" stroke="#fff" stroke-linecap="round" stroke-linejoin="round" stroke-width=".043" d="m295.22 112.45 30.5-16.658-49.775-12.291 52.116 10.075-3.419-12.79 6.508 13.709 14.577-21.338-13.829 24.473 50.296 20.627-52.637-18.411 7.587 28.94-10.676-29.86-31.248 13.523z" opacity=".396"/><path fill="#fff" stroke="#fff" stroke-linecap="round" stroke-linejoin="round" stroke-width=".043" d="m317.89 140.55 7.72-43.524-49.576 3.416 50.862-6.372-53.484-51.583 56.687 51.218 18.495-49.789-16.577 52.38 64.164-16.962-65.45 19.918 25.873 25.013-29.075-24.648-9.638 40.933z" opacity=".543"/><path fill="url(#t)" d="M615.02 1427.1c.035 18.695-23.42 28.907-38.82 20.624-14.715-5.794-18.782-27.372-5.987-37.296 14.833-13.747 44.101-5.55 44.803 16.254" opacity=".592" transform="translate(-257.03 -1330.25)"/><path fill="url(#u)" d="M627.72 1422.1c.14 25.313-29.047 41.278-51.714 34.14-23.299-4.534-37.539-34.821-21.589-54.027 16.98-23.343 58.415-20.244 70.384 6.513 1.816 3.992 2.829 8.354 2.913 12.739" opacity=".196" transform="translate(-257.03 -1330.25)"/><path fill="#fff" d="M365.46 910.73c44.73-69.452 89.46-138.9 134.19-208.35-79.316-23.091-158.63-46.183-237.95-69.274l247.54 12.035-58.982-240.71c37.782 73.463 75.563 146.93 113.35 220.39 59.656-57.144 119.31-114.29 178.97-171.43-44.73 69.452-89.46 138.9-134.19 208.35 79.316 23.091 158.63 46.183 237.95 69.274l-247.54-12.035 58.982 240.71c-37.782-73.463-75.563-146.93-113.35-220.39L365.46 910.73z" filter="url(#p)" opacity=".279" transform="rotate(-8.591 -120.542 -1294.92) scale(.2139)"/><path fill="url(#s)" fill-rule="evenodd" d="M43.673 760.54c-17.629 37.022-47.599 283.83-3.526 276.78 44.073-7.052 33.496-15.866 253.86-10.578 220.37 5.289 336.72-5.289 340.25-33.496 3.526-28.207-47.599-100.49-54.65-139.27-7.053-38.785-193.92-63.466-188.63-89.91 5.288-26.444-37.023-58.177-61.704-65.229s-49.362-8.815-59.94 24.681c-10.578 33.496-61.703 89.91-91.673 93.436S43.68 760.54 43.68 760.54z" color="#000" style="isolation:auto;mix-blend-mode:normal" transform="translate(0 -602.36)"/><path fill="#fff" fill-rule="evenodd" stroke="url(#r)" d="m854.87 1379.8-.876 1.573c-82.333 31.762-186.04 81.003-269.21 122.28-83.16 41.268-145.75 74.55-145.84 74.38-.09-.168 62.326-33.791 145.33-75.41 82.991-41.611 186.6-91.235 268.89-123.39.57.19 1.14.38 1.708.572z" color="#000" filter="url(#o)" opacity=".203" style="isolation:auto;mix-blend-mode:normal" transform="rotate(180 459.66 572.62) scale(.66521)"/><path fill="url(#m)" d="M615.57 1559.7a7.569 6.812 0 0 1-7.535 6.812 7.569 6.812 0 0 1-7.602-6.751 7.569 6.812 0 0 1 7.468-6.872 7.569 6.812 0 0 1 7.668 6.69" filter="url(#l)" opacity=".344" transform="matrix(.76707 0 0 .71631 -113.47 -890.82)"/><path fill="url(#m)" d="M615.57 1559.7a7.569 6.812 0 0 1-7.535 6.812 7.569 6.812 0 0 1-7.602-6.751 7.569 6.812 0 0 1 7.468-6.872 7.569 6.812 0 0 1 7.668 6.69" filter="url(#l)" opacity=".17" transform="matrix(1.7364 0 0 1.3528 -700.65 -1888.96)"/></svg>