<svg xmlns="http://www.w3.org/2000/svg" width="30" height="30" viewBox="0 0 330 330"><path fill="#00BFA5" d="M0 46.75c12.41.31 24.83.04 37.24.15.04 30.38.01 60.76.02 91.14-.08 6.6-.22 13.39 2.24 19.63 5.48 15.29 22.47 25.25 38.5 22.39 16.41-2.23 29.75-17.44 29.78-34.02.07-33.05-.01-66.09.04-99.14 12.42-.01 24.83-.04 37.25.01 8.56 28.43 21.26 55.55 37.01 80.69 5.69-20.78 18.04-40.65 37.2-51.37 14.87-8.55 32.86-10.8 49.6-7.66 18.07 3.54 34.67 14.09 45.51 28.98 9.4 12.74 14.79 28.57 14.39 44.45.2 17.51-6.06 35-17.19 48.51-11.93 14.75-29.73 24.59-48.6 26.72-20.73 2.18-41.91-3.33-59.48-14.4-5.6 26.28-11.13 52.58-16.72 78.86-12.66.01-25.32.03-37.98-.01 7.48-36.27 15.52-72.42 23.07-108.68-10.33-13.86-18.71-29.01-26.98-44.14-.43 10.67.92 21.52-1.6 32.01-4.63 22.88-21.04 42.95-42.56 51.99-15.34 6.58-33 7.59-48.97 2.7-17.34-5.13-32.44-17.16-41.55-32.75C4.08 172.59 1 160.85 0 149.04V46.75Z"/></svg>